<svg xmlns="http://www.w3.org/2000/svg" viewBox="0 0 1280 640" role="img" aria-labelledby="title desc">
  <title id="title">Astriena ? of the stars</title>
  <desc id="desc">Night-sky banner with a custom pale-gold display A, an irregular star field, Astriena wordmark, and tagline. For GitHub social preview at 1280 by 640.</desc>
  <defs>
    <radialGradient id="sky" cx="32%" cy="40%" r="80%">
      <stop offset="0%" stop-color="#141C2E"/>
      <stop offset="55%" stop-color="#0F1828"/>
      <stop offset="100%" stop-color="#0B1220"/>
    </radialGradient>
  </defs>
  <rect width="1280" height="640" fill="url(#sky)"/>
  <!-- Unlinked background field -->
  <g fill="#5C6B84">
    <circle cx="80" cy="70" r="1.2"/>
    <circle cx="160" cy="140" r="0.9"/>
    <circle cx="240" cy="48" r="1.1"/>
    <circle cx="420" cy="90" r="0.8"/>
    <circle cx="980" cy="70" r="1.2"/>
    <circle cx="1100" cy="120" r="0.9"/>
    <circle cx="1180" cy="200" r="1.1"/>
    <circle cx="1040" cy="520" r="1"/>
    <circle cx="200" cy="540" r="1.1"/>
    <circle cx="60" cy="400" r="0.8"/>
    <circle cx="720" cy="80" r="0.7"/>
    <circle cx="860" cy="560" r="0.9"/>
    <circle cx="1240" cy="400" r="0.8"/>
    <circle cx="500" cy="580" r="0.7"/>
    <circle cx="620" cy="40" r=".7"/>
    <circle cx="780" cy="520" r=".8"/>
    <circle cx="1140" cy="48" r=".6"/>
    <circle cx="320" cy="600" r=".7"/>
    <circle cx="40" cy="220" r=".65"/>
    <circle cx="1260" cy="280" r=".7"/>
    <circle cx="880" cy="96" r=".55"/>
    <circle cx="560" cy="600" r=".6"/>
    <circle cx="980" cy="300" r=".7"/>
    <circle cx="160" cy="300" r=".5"/>
  </g>
  <!-- Enlarged copy of the hand-authored 64-unit mark -->
  <g transform="translate(96 92) scale(5.6)">
    <g fill="#E8D5A3">
      <circle cx="18" cy="16" r=".88"/><circle cx="39" cy="31" r=".74"/>
      <circle cx="25" cy="45" r=".68"/><circle cx="54" cy="27" r=".62"/>
      <circle cx="43" cy="12" r=".56"/><circle cx="14" cy="34" r=".51"/>
      <circle cx="31" cy="19" r=".46"/><circle cx="18" cy="54" r=".43"/>
      <circle cx="9" cy="21" r=".39"/><circle cx="48" cy="46" r=".36"/>
      <circle cx="34" cy="42" r=".33"/><circle cx="52" cy="16" r=".30"/>
    </g>
    <g fill="#F7F1E1">
      <circle cx="18" cy="16" r=".27"/><circle cx="39" cy="31" r=".22"/>
      <circle cx="25" cy="45" r=".19"/><circle cx="54" cy="27" r=".17"/>
    </g>
    <g fill="#E8D5A3">
      <path d="M30.2 8.5 Q31.6 6.5 33.1 8.8 L24 52 H14.2 Q18.8 50.2 20.4 48.3 L28.6 11 Q29.3 9.1 30.2 8.5Z"/>
      <path d="M31.2 9.2 Q32.7 6.6 34.5 10.2 L48 48.5 Q49.2 50.5 52.2 52 H42.5 L30.3 11.2 Q30.5 9.9 31.2 9.2Z"/>
      <path d="M22.2 35.4 Q31.8 33.5 41.7 35.1 L43.4 40 Q32.1 38.2 20.6 40.2Z"/>
    </g>
    <path d="M31.1 10.2 Q32 8.4 33 10.1 L20.1 49.1" fill="none"
          stroke="#F7F1E1" stroke-width=".45" stroke-opacity=".20" stroke-linecap="round"/>
  </g>
  <text x="560" y="292" fill="#E8EEF7" font-family="Iowan Old Style, Palatino Linotype, Palatino, Georgia, serif" font-size="92" font-weight="600" letter-spacing="2">Astriena</text>
  <text x="564" y="352" fill="#9AA8BC" font-family="Iowan Old Style, Palatino Linotype, Palatino, Georgia, serif" font-size="28" font-style="italic" letter-spacing="4">of the stars</text>
  <text x="564" y="408" fill="#9AA8BC" font-family="Georgia, Palatino, serif" font-size="20">OpenTelemetry sampling ? BYOS ClickHouse</text>
</svg>
