<svg xmlns="http://www.w3.org/2000/svg" viewBox="0 0 16 16" role="img" aria-labelledby="title desc">
  <title id="title">Astriena</title>
  <desc id="desc">A custom pale-gold A over a tiny irregular star field.</desc>
  <rect width="16" height="16" rx="3.5" fill="#0B1220"/>
  <g fill="#5C6B84">
    <circle cx="2.5" cy="3" r=".28"/><circle cx="12.7" cy="2.4" r=".25"/>
    <circle cx="2.2" cy="10.8" r=".22"/><circle cx="13.6" cy="11.5" r=".30"/>
    <circle cx="4.4" cy="13.7" r=".24"/><circle cx="11.4" cy="14" r=".20"/>
  </g>
  <g fill="#E8D5A3">
    <path d="M7.55 2 Q8 1.35 8.45 2.1 L6.1 13.5 H3.45 Q4.7 13 5.15 12.4 L7.15 2.7 Q7.35 2.2 7.55 2Z"/>
    <path d="M7.8 2.2 Q8.3 1.35 8.8 2.4 L12.2 12.5 Q12.5 13.1 13.2 13.5 H10.6 L7.55 2.8Z"/>
    <path d="M5.5 8.7 Q8 8.2 10.55 8.65 L11 10 Q8 9.5 5.05 10.1Z"/>
  </g>
</svg>
